<svg width="101" height="104" viewBox="0 0 101 104" fill="none" xmlns="http://www.w3.org/2000/svg">
<path opacity="0.996" fill-rule="evenodd" clip-rule="evenodd" d="M30.6839 0.5C39.0375 1.07769 44.3111 5.39261 46.5052 13.4447C46.3549 13.8662 46.1147 14.2257 45.7861 14.5235C44.3672 14.8798 42.9289 14.9996 41.4711 14.883C39.0936 6.40611 33.8199 3.88908 25.6498 7.33194C23.4406 9.35176 21.7626 11.7489 20.6157 14.5235C19.2202 15.0577 17.9017 14.9378 16.6604 14.1639C17.8827 6.11011 22.5572 1.5555 30.6839 0.5Z" fill="white"/>
<path opacity="0.999" fill-rule="evenodd" clip-rule="evenodd" d="M69.5179 0.5C78.3232 1.39599 83.3573 6.19036 84.6201 14.883C83.1624 14.9996 81.7241 14.8798 80.3052 14.5235C76.8094 5.80821 71.0562 3.77063 63.0456 8.41067C61.3843 10.1757 60.1855 12.2133 59.4498 14.5235C58.0309 14.8798 56.5926 14.9996 55.1349 14.883C55.1155 9.76894 57.2729 5.8136 61.6073 3.01703C64.2401 1.87178 66.8772 1.03275 69.5179 0.5Z" fill="white"/>
<path fill-rule="evenodd" clip-rule="evenodd" d="M47.225 7.69271C49.6341 7.57405 52.0311 7.69393 54.4165 8.05228C51.5643 11.515 51.8038 14.6313 55.1356 17.4013C57.1514 17.9442 59.0694 17.7045 60.8888 16.6821C62.7766 9.14626 67.3317 6.74911 74.5527 9.49059C76.5167 11.379 77.835 13.6563 78.5081 16.3225C80.9992 18.2017 83.5163 18.2017 86.0592 16.3225C88.0958 18.2418 89.1745 20.639 89.2954 23.5141C89.775 35.0205 89.775 46.5269 89.2954 58.0334C87.7657 66.2748 82.8518 71.1888 74.5527 72.776C58.4919 73.2556 42.4304 73.2556 26.3695 72.776C18.696 71.3326 13.7818 66.8976 11.6269 59.4717C11.1475 47.0064 11.1475 34.541 11.6269 22.0757C12.3883 19.8335 13.3472 17.676 14.5035 15.6034C17.3801 18.48 20.2568 18.48 23.1334 15.6034C25.5542 8.19202 30.2287 6.39414 37.1568 10.2097C38.3593 12.3932 39.5579 14.5506 40.7526 16.6821C44.7475 18.7436 47.3839 17.6649 48.6633 13.4459C48.0318 11.5547 47.5522 9.63694 47.225 7.69271ZM28.527 16.3225C37.7429 17.0214 41.2188 21.8158 38.9547 30.7056C33.7593 37.0609 28.2457 37.3006 22.4142 31.4247C19.6754 24.439 21.713 19.405 28.527 16.3225ZM68.0804 16.3225C77.8752 17.2233 81.1114 22.2573 77.7889 31.4247C72.5154 37.1779 67.2411 37.1779 61.9676 31.4247C58.8752 24.2765 60.9126 19.2424 68.0804 16.3225ZM28.527 23.5141C34.1253 23.7716 34.8445 25.6893 30.6845 29.2673C27.8284 28.1906 27.1093 26.2728 28.527 23.5141ZM68.0804 23.5141C71.802 22.8 73.1209 24.2383 72.0357 27.829C69.7057 29.5025 67.9078 28.9032 66.6421 26.0311C67.221 25.2309 67.7007 24.3918 68.0804 23.5141ZM35.7185 48.6844C37.0044 48.4793 38.203 48.719 39.3143 49.4035C42.859 57.5041 48.6122 59.5414 56.5739 55.5163C58.3776 53.5818 59.8159 51.4246 60.8888 49.0439C62.0639 48.689 63.2628 48.5692 64.4846 48.6844C63.0326 56.6166 58.2381 60.9315 50.1016 61.6291C41.8601 61.0552 37.0656 56.7403 35.7185 48.6844Z" fill="white"/>
<path opacity="0.997" fill-rule="evenodd" clip-rule="evenodd" d="M27.0887 19.1989C35.5804 18.2173 38.8166 21.8131 36.7973 29.9862C32.9875 34.4725 28.9124 34.7122 24.5717 30.7053C22.5274 26.1295 23.3664 22.294 27.0887 19.1989ZM28.527 23.5138C27.1093 26.2725 27.8285 28.1903 30.6845 29.267C34.8445 25.6891 34.1254 23.7713 28.527 23.5138Z" fill="white"/>
<path opacity="0.998" fill-rule="evenodd" clip-rule="evenodd" d="M66.6418 19.1996C74.8063 18.1304 78.0425 21.4865 76.3503 29.2677C72.0354 35.0209 67.7205 35.0209 63.4056 29.2677C61.9615 25.0901 63.0403 21.734 66.6418 19.1996ZM68.0801 23.5145C67.7004 24.3923 67.2207 25.2313 66.6418 26.0315C67.9075 28.9037 69.7054 29.503 72.0354 27.8294C73.1206 24.2388 71.8017 22.8005 68.0801 23.5145Z" fill="white"/>
<path opacity="0.999" fill-rule="evenodd" clip-rule="evenodd" d="M8.39051 22.7949C7.43275 34.5597 7.43275 46.3058 8.39051 58.0334C1.08191 51.0992 -1.19543 42.7091 1.55857 32.8631C2.95372 28.8635 5.23106 25.5074 8.39051 22.7949Z" fill="white"/>
<path opacity="0.997" fill-rule="evenodd" clip-rule="evenodd" d="M91.8125 22.7949C100.652 30.8353 102.69 40.424 97.9253 51.561C96.4625 54.0126 94.6647 56.17 92.5317 58.0334C92.2922 57.7939 92.052 57.5537 91.8125 57.3142C93.7139 45.8147 93.7139 34.3083 91.8125 22.7949Z" fill="white"/>
<path opacity="0.999" fill-rule="evenodd" clip-rule="evenodd" d="M24.2119 81.0459C30.475 83.5788 36.4679 86.6948 42.1907 90.3949C45.5606 83.3803 50.5947 81.8226 57.2929 85.7204C58.4011 87.1875 59.3597 88.7459 60.1695 90.3949C65.5041 87.1875 70.8978 84.0714 76.3504 81.0459C77.4104 88.359 77.77 95.79 77.4291 103.34C71.2264 100.897 65.3538 97.7806 59.8099 93.9906C57.0656 100.644 52.3911 102.442 45.7864 99.3843C43.9713 98.0301 43.0119 96.2322 42.9098 93.9906C36.8102 96.5983 30.9371 99.7151 25.2906 103.34C24.2305 96.0266 23.8709 88.5956 24.2119 81.0459Z" fill="white"/>
</svg>
